<?xml version="1.0" standalone="no"?>
<!DOCTYPE svg PUBLIC "-//W3C//DTD SVG 20010904//EN"
 "http://www.w3.org/TR/2001/REC-SVG-20010904/DTD/svg10.dtd">
<svg version="1.0" xmlns="http://www.w3.org/2000/svg"
 width="260.000000pt" height="260.000000pt" viewBox="0 0 260.000000 260.000000"
 preserveAspectRatio="xMidYMid meet">
<metadata>
Created by potrace 1.11, written by Peter Selinger 2001-2013
</metadata>
<g transform="translate(0.000000,260.000000) scale(0.100000,-0.100000)"
fill="#000000" stroke="none">
<path d="M2245 2581 c-76 -34 -135 -124 -135 -204 0 -25 31 -74 68 -109 93
-87 72 -224 -46 -299 -61 -38 -111 -52 -197 -52 -76 0 -195 34 -271 78 l-41
24 13 63 c54 254 -54 467 -251 496 -107 16 -192 -17 -272 -108 -21 -24 -22
-27 -7 -69 8 -24 19 -52 25 -63 5 -10 8 -18 5 -18 -3 0 -48 29 -100 64 -52 36
-119 76 -148 89 -255 116 -521 24 -712 -247 -74 -105 -126 -234 -126 -314 1
-165 167 -234 255 -105 33 49 32 64 -10 124 -19 28 -39 67 -45 87 -51 185 130
380 340 365 115 -8 279 -82 575 -260 110 -65 232 -137 270 -158 39 -21 72 -40
74 -42 5 -3 -38 -113 -109 -278 -46 -107 -51 -125 -44 -165 l7 -45 111 225
111 226 73 -23 c93 -29 121 -34 205 -38 318 -12 678 267 679 528 1 82 -19 137
-66 183 -63 64 -153 81 -231 45z m-812 -145 c45 -18 103 -88 123 -148 18 -55
16 -162 -4 -211 l-12 -27 -57 32 c-97 53 -171 106 -197 141 -23 31 -44 89 -40
115 1 6 2 21 3 33 0 11 14 34 30 50 24 24 38 29 76 29 25 0 60 -6 78 -14z"/>
<path d="M871 1758 c-198 -29 -355 -212 -404 -469 -14 -74 -15 -258 -2 -334
62 -370 274 -661 600 -827 178 -90 312 -122 510 -122 208 0 324 33 456 130 51
37 108 114 110 148 1 12 2 28 3 36 3 23 -22 82 -42 101 -66 61 -174 59 -212
-4 -11 -18 -20 -46 -20 -63 0 -144 -125 -266 -272 -266 -152 0 -255 136 -197
259 36 76 108 128 309 225 209 101 280 148 366 240 74 79 105 132 140 234 48
143 31 310 -42 420 -107 161 -290 230 -481 181 -113 -30 -209 -110 -286 -241
-22 -39 -42 -73 -43 -74 -2 -2 -18 1 -36 7 l-33 11 0 78 c0 83 -12 123 -57
188 -74 111 -213 164 -367 142z"/>
</g>
</svg>
