<?xml version="1.0" encoding="UTF-8" standalone="no"?>
<svg width="20px" height="17px" viewBox="0 0 20 17" version="1.1" xmlns="http://www.w3.org/2000/svg" xmlns:xlink="http://www.w3.org/1999/xlink">
    <!-- Generator: Sketch 41.1 (35376) - http://www.bohemiancoding.com/sketch -->
    <title>Shape</title>
    <desc>Created with Sketch.</desc>
    <defs></defs>
    <g id="Page-1" stroke="none" stroke-width="1" fill="none" fill-rule="evenodd">
        <path d="M7.69090913,15.3818183 C7.69090913,15.7984092 7.53869322,16.1589205 7.2342614,16.4633523 C6.92982958,16.7677842 6.56931821,16.9200001 6.1527273,16.9200001 C5.73613639,16.9200001 5.37562502,16.7677842 5.0711932,16.4633523 C4.76676139,16.1589205 4.61454548,15.7984092 4.61454548,15.3818183 C4.61454548,14.9652273 4.76676139,14.604716 5.0711932,14.3002842 C5.37562502,13.9958523 5.73613639,13.8436364 6.1527273,13.8436364 C6.56931821,13.8436364 6.92982958,13.9958523 7.2342614,14.3002842 C7.53869322,14.604716 7.69090913,14.9652273 7.69090913,15.3818183 Z M18.4581819,15.3818183 C18.4581819,15.7984092 18.305966,16.1589205 18.0015342,16.4633523 C17.6971024,16.7677842 17.336591,16.9200001 16.9200001,16.9200001 C16.5034092,16.9200001 16.1428978,16.7677842 15.838466,16.4633523 C15.5340342,16.1589205 15.3818183,15.7984092 15.3818183,15.3818183 C15.3818183,14.9652273 15.5340342,14.604716 15.838466,14.3002842 C16.1428978,13.9958523 16.5034092,13.8436364 16.9200001,13.8436364 C17.336591,13.8436364 17.6971024,13.9958523 18.0015342,14.3002842 C18.305966,14.604716 18.4581819,14.9652273 18.4581819,15.3818183 Z M19.9963637,2.30727274 L19.9963637,8.46000004 C19.9963637,8.65227277 19.93027,8.82251424 19.7980825,8.97072447 C19.665895,9.1189347 19.5036649,9.20505686 19.3113921,9.22909095 L6.76559662,10.6951705 C6.86974435,11.1758523 6.92181821,11.4562501 6.92181821,11.5363637 C6.92181821,11.6645455 6.82568185,11.9209091 6.63340912,12.3054546 L17.689091,12.3054546 C17.8973864,12.3054546 18.0776421,12.3815626 18.229858,12.5337785 C18.3820739,12.6859944 18.4581819,12.8662501 18.4581819,13.0745455 C18.4581819,13.282841 18.3820739,13.4630967 18.229858,13.6153126 C18.0776421,13.7675285 17.8973864,13.8436364 17.689091,13.8436364 L5.38363639,13.8436364 C5.17534093,13.8436364 4.99508525,13.7675285 4.84286934,13.6153126 C4.69065343,13.4630967 4.61454548,13.282841 4.61454548,13.0745455 C4.61454548,12.9864205 4.64659093,12.8602415 4.71068184,12.6960086 C4.77477275,12.5317756 4.83886366,12.3875711 4.90295457,12.2633949 C4.96704548,12.1392188 5.05316764,11.9789915 5.16132105,11.7827131 C5.26947446,11.5864347 5.33156252,11.4682671 5.34758525,11.4282103 L3.2205682,1.53818183 L0.769090913,1.53818183 C0.560795457,1.53818183 0.380539774,1.46207387 0.228323865,1.30985796 C0.0761079549,1.15764205 0,0.977386368 0,0.769090913 C0,0.560795457 0.0761079549,0.380539774 0.228323865,0.228323865 C0.380539774,0.0761079549 0.560795457,0 0.769090913,0 L3.84545456,0 C3.97363638,0 4.08779831,0.0260369319 4.18794036,0.0781107958 C4.28808241,0.13018466 4.3661932,0.192272728 4.42227275,0.264375001 C4.47835229,0.336477274 4.53042616,0.434616479 4.57849434,0.558792616 C4.62656252,0.682968753 4.65860798,0.787116481 4.6746307,0.871235799 C4.69065343,0.955355118 4.71268468,1.07352273 4.74072445,1.22573864 C4.76876423,1.37795455 4.78678979,1.48210228 4.79480116,1.53818183 L19.2272728,1.53818183 C19.4355683,1.53818183 19.615824,1.61428978 19.7680399,1.76650569 C19.9202558,1.9187216 19.9963637,2.09897728 19.9963637,2.30727274 Z" id="Shape" fill="#7E836F"></path>
    </g>
</svg>