<?xml version="1.0" encoding="UTF-8" standalone="no"?>
<svg width="65px" height="67px" viewBox="0 0 65 67" version="1.1" xmlns="http://www.w3.org/2000/svg" xmlns:xlink="http://www.w3.org/1999/xlink">
    <!-- Generator: Sketch 41.1 (35376) - http://www.bohemiancoding.com/sketch -->
    <title>leaf</title>
    <desc>Created with Sketch.</desc>
    <defs></defs>
    <g id="Symbols" stroke="none" stroke-width="1" fill="none" fill-rule="evenodd">
        <g id="logo--large" transform="translate(-248.000000, 0.000000)" fill="#D2DBBA">
            <path d="M286.416231,14.1438278 L286.5995,13.5797683 L286.768671,13.05801 L286.895552,12.5785605 L286.994235,12.1273117 L287.064727,11.7183642 L287.121116,11.3235246 L287.16341,10.9427817 L287.177509,10.5761429 L287.16341,10.2377068 L287.149312,9.89926887 L287.121116,9.5608328 L287.064727,9.23649712 L287.008334,8.91216334 L286.937846,8.60192995 L286.867359,8.29169467 L286.768671,7.99556225 L286.655893,7.69943002 L286.543111,7.40329779 L286.402133,7.12126785 L286.261154,6.83923791 L286.106082,6.57131027 L285.936911,6.30338263 L285.753638,6.035451 L285.55627,5.78162565 L285.344804,5.54189861 L285.147437,5.31627387 L284.921873,5.10475141 L284.710407,4.90733126 L284.484847,4.72400941 L284.259283,4.55478985 L284.033719,4.39967657 L283.794057,4.27275991 L283.554399,4.15994953 L283.314737,4.04713517 L283.060976,3.96252539 L282.80722,3.8920179 L282.55346,3.83561271 L282.299703,3.79330982 L282.031844,3.77920752 L281.76399,3.76510523 L281.425644,3.77920752 L281.1014,3.82151042 L280.946323,3.84971501 L280.805345,3.8779196 L280.650272,3.92022249 L280.509294,3.96252539 L280.382417,4.01893456 L280.241439,4.07533975 L280.114559,4.14584724 L279.987678,4.21635472 L279.874896,4.3009645 L279.762119,4.38557428 L279.649336,4.47018406 L279.536555,4.56889214 L279.437871,4.66760422 L279.339187,4.78041459 L279.254598,4.89322896 L279.170012,5.00603934 L279.099525,5.132956 L279.029038,5.25986868 L278.958546,5.38678135 L278.916256,5.51369402 L278.859863,5.65470899 L278.817572,5.79572396 L278.775277,5.95084122 L278.747081,6.10595848 L278.718888,6.41619301 L278.70479,6.75462814 L278.70479,6.96615059 L278.718888,7.17767703 L278.747081,7.37509718 L278.789375,7.58661964 L278.845764,7.79814209 L278.902157,8.00966397 L278.972645,8.22118699 L279.05723,8.41861152 L279.155914,8.63013454 L279.254598,8.85575796 L279.381478,9.08138327 L279.508358,9.30700479 L279.649336,9.53262821 L279.804409,9.77235582 L279.97358,10.0120834 L280.156854,10.2659076 L280.467003,10.5197375 L280.805345,10.7735636 L281.143691,11.0273917 L281.482037,11.2812178 L281.848575,11.5209454 L282.215118,11.7606711 L282.595754,12.0144972 L282.990489,12.2542248 L283.385224,12.4939505 L283.794057,12.7336781 L284.216989,12.9734019 L284.63992,13.2131276 L285.07695,13.4528553 L285.513979,13.6784806 L285.965103,13.9182025 L286.416231,14.1438278 Z M281.76399,29.9516377 L281.397451,27.6248882 L281.778088,26.7787942 L282.130532,25.9609086 L282.468874,25.1853223 L282.793122,24.4379406 L283.089173,23.7328658 L283.371126,23.070094 L283.638985,22.4355268 L283.892741,21.8291586 L284.132403,21.2509968 L284.357967,20.6869373 L284.583531,20.122874 L284.809095,19.5729168 L285.020557,19.0229577 L285.232022,18.487099 L285.443488,17.9512403 L285.640856,17.4153854 L285.161535,17.1615555 L284.654018,16.8936271 L284.146501,16.6115983 L283.59669,16.3154653 L283.046882,16.00523 L282.468874,15.6808943 L281.876772,15.3424583 L281.270571,14.9899218 L280.636174,14.6232811 L279.987678,14.2425401 L279.310991,13.8617971 L278.634299,13.4528553 L277.929414,13.0298111 L277.196333,12.592659 L276.463257,12.141414 L275.701979,11.6760611 L274.47548,10.9427817 L273.291271,10.2377068 L272.163455,9.58903739 L271.077934,8.98267101 L270.034704,8.43271001 L269.033768,7.92505476 L268.089222,7.47380926 L267.18697,7.06486266 L266.327009,6.69822295 L265.509342,6.38798842 L265.114609,6.24697345 L264.733966,6.12006078 L264.367428,6.0072504 L264.014985,5.90853833 L263.662545,5.80982625 L263.338297,5.73931877 L263.014048,5.66881129 L262.703899,5.6124061 L262.393751,5.5701032 L262.111798,5.54189861 L261.829845,5.52779632 L261.561985,5.51369402 L261.12496,5.52779632 L260.687929,5.55600091 L260.250901,5.5983038 L259.827968,5.66881129 L259.419135,5.75342106 L259.010303,5.85213314 L258.615568,5.96494352 L258.234931,6.10595848 L257.854291,6.26107575 L257.473654,6.4302953 L257.121209,6.61361317 L256.754671,6.82513562 L256.416326,7.05076037 L256.077983,7.3045897 L255.739638,7.55841505 L255.429488,7.84044498 L255.119338,8.13657702 L254.823287,8.43271001 L254.555429,8.7429434 L254.31577,9.05317868 L254.076108,9.36341397 L253.864642,9.68774585 L253.681373,10.0120834 L253.512199,10.3505176 L253.357125,10.6889575 L253.230246,11.0414939 L253.117464,11.3940323 L253.032879,11.7465688 L252.96239,12.1132095 L252.920096,12.4939505 L252.877805,12.8605912 L252.877805,13.2554307 L252.877805,13.5797683 L252.905998,13.904104 L252.96239,14.2284378 L253.032879,14.5527735 L253.117464,14.8771072 L253.216148,15.2014448 L253.343026,15.5257767 L253.498104,15.8501143 L253.653176,16.1885484 L253.850544,16.512886 L254.047911,16.8513202 L254.273476,17.1897601 L254.513137,17.514092 L254.780991,17.8525318 L255.062944,18.190966 L255.358996,18.5294021 L255.232121,18.9665485 L255.091141,19.3754961 L254.936069,19.7562333 L254.752796,20.1087755 L254.569527,20.4331074 L254.37216,20.7433427 L254.259377,20.8702557 L254.146595,21.0112711 L254.033813,21.138186 L253.921031,21.2509968 L253.794156,21.3638113 L253.681373,21.4625198 L253.554493,21.5471298 L253.427612,21.645842 L253.286638,21.7163497 L253.145659,21.8009597 L253.004682,21.8573632 L252.863706,21.9278708 L252.70863,21.9701739 L252.553558,22.0265793 L252.39848,22.0547839 L252.243408,22.097087 L252.074232,22.1111893 L251.905061,22.1393938 L251.735891,22.1393938 L251.566717,22.1534961 L251.369349,22.1393938 L251.171981,22.1252916 L250.988712,22.1111893 L250.819542,22.0688862 L250.636267,22.0265793 L250.467096,21.9701739 L250.297926,21.9137685 L250.142848,21.8432609 L249.973678,21.7586528 L249.8327,21.6740428 L249.677626,21.5612321 L249.536649,21.4625198 L249.39567,21.3356067 L249.254696,21.2086937 L249.127815,21.0676802 L249.000934,20.9266611 L248.874056,20.7715473 L248.761277,20.6023273 L248.662593,20.4331074 L248.563906,20.2638931 L248.465222,20.0805709 L248.380637,19.8972525 L248.310148,19.699828 L248.25376,19.5024091 L248.183269,19.2908861 L248.140977,19.0934654 L248.098684,18.867842 L248.056388,18.6422166 L248.028195,18.4165913 L248.014098,18.190966 L248,17.9512403 L248,17.6974142 L248,17.4435843 L248.014098,17.1897601 L248.042294,16.9218279 L248.070487,16.6539014 L248.112782,16.385973 L248.169171,16.1180408 L248.225563,15.836012 L248.296051,15.539879 L248.380637,15.2578483 L248.47932,14.9617172 L248.578004,14.6514819 L248.676688,14.3412523 L248.930448,13.7207837 L249.2124,13.0721123 L249.536649,12.4093405 L249.874994,11.7606711 L250.241532,11.1120016 L250.650365,10.4633322 L251.073298,9.8287612 L251.524425,9.19419403 L252.003745,8.55962687 L252.525361,7.93915706 L252.835511,7.57251734 L253.145659,7.21997992 L253.455809,6.8815448 L253.780057,6.54310568 L254.104305,6.23287116 L254.428552,5.92264062 L254.752796,5.62650839 L255.091141,5.34447845 L255.429488,5.06244453 L255.767833,4.80861918 L256.106176,4.55478985 L256.45862,4.3150668 L256.811059,4.08944205 L257.163505,3.8638173 L257.515948,3.66639714 L257.882486,3.468973 L258.249026,3.28565514 L258.615568,3.11643558 L258.982106,2.94721602 L259.348648,2.80620105 L259.729285,2.66518609 L260.095823,2.53827341 L260.476465,2.43956134 L260.857102,2.32675096 L261.237738,2.24214118 L261.632477,2.1716337 L262.013114,2.10112621 L262.407847,2.04472102 L262.802582,2.01651644 L263.197317,1.97421354 L263.592056,1.96011125 L264.00089,1.96011125 L264.325134,1.96011125 L264.649381,1.97421354 L264.987728,2.00241414 L265.311974,2.03061873 L265.636223,2.07292163 L265.974566,2.11522851 L266.298812,2.18573599 L266.637159,2.25624348 L266.961406,2.32675096 L267.299752,2.41136074 L267.623996,2.51006882 L267.962342,2.62288319 L268.300687,2.73569357 L268.624935,2.86261023 L268.963277,2.98952291 L269.287525,3.13053787 L269.639969,3.28565514 L269.978315,3.45487071 L270.344853,3.63819256 L270.72549,3.84971501 L271.106131,4.06123746 L271.500865,4.28686221 L271.909699,4.54069154 L272.318532,4.79451689 L273.192587,5.35857676 L274.108937,5.99314811 L275.053484,6.68412065 L276.068518,7.44560467 L274.785629,4.06123746 L275.123975,3.59588966 L275.476415,3.17284077 L275.828859,2.79210275 L276.1813,2.42546303 L276.364573,2.25624348 L276.547842,2.10112621 L276.731111,1.94600895 L276.914381,1.80499398 L277.111748,1.66397902 L277.295017,1.53706634 L277.492389,1.41014968 L277.675658,1.2973393 L277.873025,1.19862723 L278.070393,1.09991914 L278.26776,1.00120707 L278.479226,0.916597292 L278.690692,0.846089808 L278.902157,0.76148003 L279.113623,0.70507484 L279.325089,0.648669651 L279.550653,0.592264461 L279.776213,0.549957578 L280.001777,0.507654683 L280.227341,0.479450094 L280.706661,0.437147198 L281.185985,0.423044904 L281.623011,0.437147198 L282.031844,0.4653478 L282.440681,0.521756977 L282.849515,0.592264461 L283.230151,0.690972546 L283.610788,0.803786913 L283.991425,0.944801881 L284.357967,1.09991914 L284.710407,1.28323701 L285.048753,1.48065716 L285.387099,1.70628191 L285.711347,1.94600895 L286.035595,2.21393659 L286.345744,2.49597052 L286.641795,2.80620105 L286.923748,3.13053787 L287.205701,3.48307529 L287.459462,3.83561271 L287.69912,4.20225243 L287.924684,4.58299444 L288.122051,4.96373645 L288.319419,5.35857676 L288.488594,5.78162565 L288.629568,6.20467056 L288.770546,6.62771546 L288.883329,7.07896495 L288.982012,7.53021445 L289.052499,7.99556225 L289.122991,8.4750169 L289.165281,8.96856872 L289.193478,9.46212053 L289.207576,9.98387884 L289.193478,10.406923 L289.165281,10.872274 L289.108893,11.3658277 L289.038405,11.9016864 L288.99611,12.1978194 L288.953816,12.5080528 L288.883329,12.8605912 L288.826939,13.2272299 L288.74235,13.6361737 L288.671863,14.0592178 L288.573179,14.5245689 L288.488594,15.0040241 L289.094794,15.328356 L289.686897,15.6526935 L290.250807,15.9347242 L290.814712,16.2026507 L291.364524,16.4423784 L291.886139,16.6539014 L292.393656,16.8513202 L292.887075,17.0205401 L293.366395,17.1615555 L293.845719,17.2884685 L294.32504,17.4012831 L294.804364,17.4858912 L295.269587,17.5563988 L295.720714,17.5987019 L296.185937,17.6269065 L296.637064,17.641005 L297.045898,17.6269065 L297.440633,17.6128042 L297.835368,17.5845996 L298.216004,17.5281943 L298.582547,17.4717889 L298.949085,17.4012831 L299.301529,17.3166731 L299.653969,17.2038586 L299.978217,17.0910478 L300.316563,16.9641348 L300.640811,16.8231194 L300.95096,16.6680037 L301.247011,16.4987837 L301.543063,16.3154653 L301.825015,16.1180408 L302.106972,15.9065197 L302.374827,15.6949966 L302.614489,15.4693713 L302.854148,15.2296437 L303.065613,14.9899218 L303.262981,14.7501942 L303.446254,14.4963643 L303.601327,14.2425401 L303.742305,13.9746117 L303.88328,13.7066814 L303.981963,13.438753 L304.080647,13.1567223 L304.165237,12.8746935 L304.221626,12.5785605 L304.26392,12.2683271 L304.292113,11.9721941 L304.292113,11.6619588 L304.292113,11.4504377 L304.26392,11.2248124 L304.235724,11.0273917 L304.193429,10.8158705 L304.13704,10.6043475 L304.066553,10.3928245 L303.981963,10.1812977 L303.88328,9.98387884 L303.770498,9.77235582 L303.65772,9.57493509 L303.516741,9.37751057 L303.375763,9.18009174 L303.206592,8.96856872 L303.037421,8.77114799 L302.854148,8.58782766 L302.65678,8.39040693 L302.276143,8.00966397 L301.937797,7.65712712 L301.655844,7.31869199 L301.430281,7.00845747 L301.331597,6.8674425 L301.247011,6.72642753 L301.176524,6.58541257 L301.120131,6.4584959 L301.07784,6.33158323 L301.035546,6.20467056 L301.021447,6.09185619 L301.007349,5.97904581 L301.021447,5.66881129 L301.035546,5.35857676 L301.063742,5.04834622 L301.120131,4.75221399 L301.176524,4.47018406 L301.232913,4.18815013 L301.317499,3.9061202 L301.416182,3.63819256 L301.514866,3.37026491 L301.641746,3.11643558 L301.768627,2.86261023 L301.909605,2.62288319 L302.078776,2.38315615 L302.247947,2.1575314 L302.417122,1.93190666 L302.614489,1.72038421 L302.825955,1.50886175 L303.037421,1.3114416 L303.248886,1.12811974 L303.474446,0.958904175 L303.70001,0.803786913 L303.939673,0.662771945 L304.179331,0.535855284 L304.418993,0.423044904 L304.672753,0.324332832 L304.940608,0.239723053 L305.208462,0.169215569 L305.476322,0.112810379 L305.758275,0.0564051897 L306.054326,0.0282006011 L306.336283,0 L306.646433,0 L306.942482,0 L307.238534,0.0282006011 L307.520487,0.0564051897 L307.802439,0.112810379 L308.0703,0.169215569 L308.338154,0.239723053 L308.591913,0.324332832 L308.845671,0.423044904 L309.085332,0.535855284 L309.324995,0.662771945 L309.564653,0.803786913 L309.790217,0.958904175 L310.001683,1.12811974 L310.213149,1.3114416 L310.424614,1.50886175 L310.621981,1.72038421 L310.80525,1.93190666 L310.974427,2.1575314 L311.143597,2.38315615 L311.298669,2.62288319 L311.42555,2.87670854 L311.552431,3.13053787 L311.665213,3.39846552 L311.777993,3.66639714 L311.862579,3.94842708 L311.947166,4.24455931 L312.003558,4.54069154 L312.059946,4.83682377 L312.102242,5.14705431 L312.130435,5.47139113 L312.15863,5.79572396 L312.15863,6.12006078 L312.15863,6.40209071 L312.144533,6.68412065 L312.116336,6.95205228 L312.088143,7.23408222 L312.04585,7.50200986 L312.003558,7.7699375 L311.947166,8.05197085 L311.890776,8.31989926 L311.806187,8.60192995 L311.7357,8.86985645 L311.637016,9.13778865 L311.538332,9.40571516 L311.42555,9.68774585 L311.312768,9.95567805 L311.185887,10.2236046 L311.059012,10.491533 L310.918033,10.7594652 L310.76296,11.0273917 L310.607883,11.2953201 L310.438712,11.5632523 L310.269538,11.8170765 L310.086269,12.0850049 L309.888901,12.3388329 L309.691534,12.6067613 L309.480068,12.8605912 L309.254503,13.1144154 L309.02894,13.3823476 L308.80338,13.6361737 L308.309957,14.1297255 L307.788343,14.6373834 L307.421803,14.9617172 L307.055265,15.2719506 L306.688723,15.5821859 L306.322185,15.8783189 L305.941544,16.1603477 L305.575006,16.4423784 L305.194369,16.6962026 L304.79963,16.9500325 L304.418993,17.2038586 L304.038356,17.429482 L303.643621,17.6551073 L303.248886,17.8807326 L302.854148,18.0781533 L302.445314,18.275576 L302.050579,18.4588944 L301.641746,18.6422166 L301.232913,18.7973343 L300.82408,18.9524462 L300.415247,19.0934654 L300.006414,19.2203784 L299.583482,19.3472915 L299.174649,19.460106 L298.751718,19.5588145 L298.328786,19.6434226 L297.905855,19.7280325 L297.482927,19.7985402 L297.059996,19.8549456 L296.622966,19.8972525 L296.200035,19.9395556 L295.763005,19.9677601 L295.340074,19.9818586 L294.903048,19.9818586 L294.494215,19.9818586 L294.085378,19.9536579 L293.66245,19.9254533 L293.225421,19.8831502 L292.788391,19.8126425 L292.337263,19.7421348 L291.886139,19.6575249 L291.420913,19.5588145 L290.955691,19.4460037 L290.476371,19.3190869 L289.997046,19.1921738 L289.517726,19.0370562 L289.024307,18.867842 L288.530884,18.698622 L288.037466,18.5152998 L287.529949,18.3178791 L287.247996,18.8960408 L286.951945,19.4883068 L286.641795,20.122874 L286.331646,20.757445 L286.007398,21.4202167 L285.669052,22.1111893 L285.316612,22.8162679 L284.964168,23.5495473 L284.583531,24.2969253 L284.216989,25.0584093 L283.822254,25.8339918 L283.427519,26.6236804 L283.018686,27.4274675 L282.609852,28.2594554 L282.186921,29.0914471 L281.76399,29.9516377 Z M280.015875,32.1514759 L281.76399,32.7296396 L282.060041,32.1655782 L282.341994,31.6297195 L282.638049,31.1079631 L282.948198,30.6003071 L283.24425,30.1208576 L283.554399,29.6555066 L283.864549,29.2183582 L284.174698,28.7953141 L284.484847,28.4004688 L284.809095,28.0056293 L285.119245,27.6530871 L285.457586,27.3005506 L285.781834,26.9903192 L286.106082,26.6800858 L286.444428,26.3980551 L286.78277,26.1301248 L287.121116,25.890401 L287.47356,25.6647756 L287.826,25.4532545 L288.192542,25.25583 L288.573179,25.0725116 L288.953816,24.9032916 L289.348551,24.748174 L289.74329,24.6212628 L290.152123,24.4943498 L290.560956,24.3956375 L290.983887,24.3110275 L291.420913,24.2264176 L291.857943,24.1841145 L292.309071,24.1418076 L292.760194,24.1136068 L293.225421,24.0995045 L293.817523,24.1136068 L294.395527,24.1559099 L294.973535,24.2264176 L295.523347,24.3110275 L296.073155,24.4238421 L296.608868,24.5648575 L297.130483,24.7340717 L297.638,24.9173939 L297.877662,25.0302047 L298.131419,25.1289169 L298.371081,25.25583 L298.610743,25.3827468 L298.850401,25.509658 L299.075965,25.6506734 L299.315627,25.7916887 L299.541191,25.932704 L299.978217,26.2570397 L300.415247,26.5954758 L300.82408,26.9621146 L301.232913,27.3569598 L301.627648,27.780004 L301.980092,28.20305 L302.318438,28.6401964 L302.642682,29.0914471 L302.924639,29.5567943 L303.192493,30.0362476 L303.432156,30.5298013 L303.643621,31.0233532 L303.826891,31.5451096 L303.996062,32.066866 L304.122942,32.6168289 L304.235724,33.1667861 L304.334407,33.7308456 L304.390797,34.3090111 L304.433091,34.9012733 L304.44719,35.5076397 L304.433091,36.1563092 L304.390797,36.8049786 L304.320309,37.4395496 L304.235724,38.0600145 L304.122942,38.6804831 L303.967869,39.2868476 L303.798694,39.893214 L303.615425,40.4854781 L303.389861,41.0636399 L303.136105,41.6418016 L302.868246,42.2058668 L302.572195,42.7699263 L302.247947,43.3198835 L301.895507,43.8698445 L301.514866,44.4057051 L301.106033,44.9274577 L300.683102,45.4492141 L300.231978,45.9568682 L299.752653,46.4504258 L299.245136,46.9298753 L298.723521,47.4093248 L298.173713,47.8746777 L297.609804,48.3259265 L297.003603,48.7630748 L296.383304,49.186119 L295.748907,49.6091631 L295.072219,50.0040083 L294.381433,50.3988517 L293.66245,50.7795909 L292.929369,51.1462296 L292.168092,51.5128703 L291.378622,51.8654106 L291.237644,51.9218159 L291.054375,51.9923236 L290.857007,52.0769336 L290.617345,52.175642 L290.109828,52.4012674 L289.616409,52.6127885 L289.137089,52.8384138 L288.671863,53.0640391 L288.220735,53.2896625 L287.797807,53.5152879 L287.374876,53.7409132 L286.980137,53.9665385 L286.5995,54.1921619 L286.232962,54.4177872 L285.880518,54.657511 L285.542172,54.8831344 L285.232022,55.1087598 L284.935971,55.3484874 L284.63992,55.5741108 L284.372065,55.8138346 L284.118305,56.0394599 L283.892741,56.2791856 L283.667181,56.5189132 L283.469814,56.7586409 L283.28654,56.9842605 L283.103271,57.2239881 L282.948198,57.4637157 L282.821318,57.7034414 L282.694438,57.9431652 L282.595754,58.1828928 L282.49707,58.4367208 L282.426583,58.6764446 L282.37019,58.9161723 L282.3279,59.155898 L282.299703,59.4097241 L282.299703,59.6494517 L282.299703,59.9173782 L282.3279,60.1853104 L282.356092,60.4391365 L282.398387,60.6929645 L282.454776,60.9326883 L282.511169,61.1724159 L282.595754,61.4121416 L282.694438,61.6377669 L282.793122,61.8633923 L282.905904,62.0749134 L283.032784,62.2864364 L283.173758,62.4838571 L283.328835,62.6953802 L283.498006,62.8787005 L283.681275,63.0620189 L283.864549,63.2453412 L284.061916,63.4145611 L284.273382,63.5837753 L284.484847,63.738893 L284.696313,63.865806 L284.921873,63.9927229 L285.161535,64.1196359 L285.401197,64.2183482 L285.640856,64.3170548 L285.908714,64.4016647 L286.162471,64.4721724 L286.430329,64.5285778 L286.712282,64.584987 L286.994235,64.62729 L287.276192,64.6554946 L287.572244,64.6695931 L287.882393,64.6695931 L288.178444,64.6695931 L288.460397,64.6554946 L288.756448,64.6131878 L289.038405,64.584987 L289.320358,64.5285778 L289.588213,64.4721724 L289.856072,64.3875624 L290.123926,64.3029525 L290.391781,64.2183482 L290.645542,64.1055336 L290.899298,63.9927229 L291.153058,63.8517075 L291.406819,63.7106884 L291.646477,63.5555745 L291.886139,63.4004588 L292.111703,63.2312389 L292.351361,63.0479204 L292.562827,62.8504959 L292.774293,62.6530771 L292.97166,62.4556563 L293.154933,62.2441333 L293.338203,62.0185099 L293.507374,61.7928846 L293.66245,61.5672593 L293.817523,61.3275317 L293.958502,61.087806 L294.085378,60.8339798 L294.212258,60.5801499 L294.32504,60.3122234 L294.437822,60.044295 L294.522407,59.7622624 L294.606993,59.4802317 L294.677484,59.1276934 L294.747971,58.7046492 L294.804364,58.2110974 L294.860753,57.6188333 L294.88895,57.2944958 L294.945339,56.9842605 L295.029924,56.7022317 L295.114514,56.4343033 L295.170903,56.3214925 L295.24139,56.1945757 L295.297783,56.0817668 L295.382368,55.9830545 L295.452856,55.8702438 L295.537441,55.7715315 L295.622031,55.6869215 L295.720714,55.6023116 L295.819398,55.5177054 L295.93218,55.4330973 L296.030864,55.3625897 L296.15774,55.3061805 L296.397402,55.1792674 L296.665257,55.0946575 L296.961312,55.0100475 L297.271462,54.9677444 L297.609804,54.9254413 L297.962248,54.9254413 L298.159615,54.9254413 L298.356983,54.9395398 L298.55435,54.9536421 L298.751718,54.995949 L298.934987,55.0241498 L299.11826,55.080559 L299.301529,55.1369644 L299.4707,55.1933697 L299.639875,55.2638774 L299.809046,55.3484874 L299.978217,55.4330973 L300.133294,55.5318039 L300.288367,55.6446185 L300.443443,55.7574292 L300.584418,55.8702438 L300.739494,55.9971568 L300.880473,56.1381722 L301.007349,56.2791856 L301.120131,56.4343033 L301.232913,56.5753186 L301.345695,56.7304363 L301.430281,56.8855539 L301.514866,57.0406696 L301.599456,57.2098858 L301.655844,57.3791057 L301.712234,57.5483257 L301.768627,57.7175399 L301.810917,57.8867598 L301.839114,58.0700821 L301.853212,58.2534005 L301.86731,58.4367208 L301.881408,58.6341416 L301.86731,58.81746 L301.86731,59.0148845 L301.839114,59.1982011 L301.810917,59.3956218 L301.768627,59.578944 L301.726332,59.7622624 L301.669943,59.9596851 L301.61355,60.1430035 L301.543063,60.3263257 L301.472575,60.5096442 L301.373892,60.6929645 L301.289306,60.8762829 L301.190622,61.0596052 L301.07784,61.2288213 L300.95096,61.4121416 L300.82408,61.5954601 L300.542127,61.9480022 L300.231978,62.3005387 L299.893632,62.6389748 L299.512995,62.977409 L299.104162,63.3158488 L298.653034,63.654283 L298.187812,63.9786206 L297.666197,64.3029525 L297.144581,64.6131878 L296.59477,64.9093207 L296.030864,65.1772472 L295.466954,65.4310771 L294.874852,65.6708048 L294.268651,65.8682236 L293.648352,66.0656443 L293.028053,66.2348643 L292.379558,66.3899819 L291.716964,66.516893 L291.040276,66.6297076 L290.363588,66.7284161 L289.6587,66.7989237 L288.939717,66.8412306 L288.206641,66.8694314 L287.459462,66.8835337 L286.712282,66.8694314 L285.965103,66.8412306 L285.217928,66.7989237 L284.470749,66.7284161 L283.72357,66.6438061 L282.990489,66.5450976 L282.257408,66.4181808 L281.524327,66.2771673 L280.805345,66.1079512 L280.072268,65.924629 L279.353285,65.7272082 L278.634299,65.5015848 L277.915316,65.2618572 L277.196333,65.0080311 L276.491449,64.7260023 L275.786565,64.4298693 L275.08168,64.1196359 L274.390894,63.7811961 L273.714202,63.4427619 L273.051613,63.0761212 L272.389019,62.7094825 L271.754622,62.314641 L271.120225,61.9197976 L270.499926,61.4967516 L269.907824,61.0596052 L269.315721,60.6224568 L268.737717,60.1571058 L268.159709,59.6776563 L267.609901,59.1840988 L267.074188,58.6764446 L266.538475,58.1546882 L266.016859,57.6188333 L265.57983,57.1252796 L265.1428,56.631724 L264.719873,56.1099676 L264.31104,55.5882131 L263.916301,55.0664567 L263.535664,54.5164957 L263.155028,53.9665385 L262.802582,53.4024733 L262.450143,52.8384138 L262.111798,52.260252 L261.801648,51.6679879 L261.491498,51.075722 L261.195447,50.4552571 L260.913494,49.8488907 L260.645636,49.2143235 L260.377781,48.5797526 L260.138118,47.9310831 L259.912554,47.2965159 L259.701088,46.6478465 L259.503722,45.9991751 L259.320451,45.3505057 L259.151281,44.7018324 L259.010303,44.0390645 L258.869324,43.3903912 L258.756545,42.7276232 L258.643765,42.0648515 L258.559174,41.4161782 L258.488687,40.7534103 L258.432299,40.0765362 L258.404102,39.4137626 L258.375905,38.7509908 L258.361806,38.0741168 L258.375905,37.622868 L258.375905,37.1575208 L258.404102,36.7203725 L258.4182,36.2691237 L258.46049,35.8460739 L258.488687,35.4089274 L258.530983,34.9858814 L258.587371,34.5628373 L258.643765,34.1538954 L258.714252,33.7449479 L258.784739,33.336006 L258.869324,32.9411608 L258.953913,32.5463212 L259.052597,32.1514759 L259.151281,31.7707349 L259.264063,31.4040942 L259.376841,31.0233532 L259.489624,30.6567125 L259.630601,30.304176 L259.757482,29.9516377 L259.898455,29.5991012 L260.053533,29.2606613 L260.208605,28.9222271 L260.377781,28.5837911 L260.546952,28.2594554 L260.716123,27.9351216 L260.899395,27.6107859 L261.096763,27.3005506 L261.29413,27.0044177 L261.491498,26.6941881 L261.702964,26.3980551 L261.928529,26.1160225 L262.154091,25.8339918 L262.379652,25.5519611 L262.605215,25.2840346 L262.844878,25.0302047 L263.084535,24.7904809 L263.324198,24.5507552 L263.577958,24.3251298 L263.831716,24.0995045 L264.085475,23.8879834 L264.339231,23.6905627 L264.607091,23.4931381 L264.860847,23.3098197 L265.128705,23.1406017 L265.410658,22.9713855 L265.678514,22.8162679 L265.960471,22.6611503 L266.256522,22.5201368 L266.538475,22.39322 L266.834526,22.2804092 L267.130577,22.1675984 L267.426628,22.0547839 L267.722679,21.9701739 L268.032829,21.8855639 L268.342978,21.8009597 L268.667226,21.7304482 L268.977375,21.6740428 L269.301623,21.6317397 L269.625871,21.5894329 L269.964217,21.5612321 L270.288464,21.5330275 L270.626806,21.5189252 L270.965152,21.5189252 L271.472669,21.5330275 L271.951989,21.5612321 L272.431314,21.6035351 L272.896536,21.6740428 L273.347664,21.7586528 L273.784694,21.8714654 L274.221719,21.9983785 L274.630552,22.1534961 L275.039386,22.3086138 L275.434124,22.5060345 L275.814761,22.7034533 L276.195398,22.943181 L276.547842,23.1829086 L276.900282,23.4508351 L277.238628,23.7328658 L277.562876,24.0430991 L277.887124,24.3674329 L278.183175,24.6917705 L278.45103,25.044307 L278.70479,25.3968453 L278.930354,25.7634841 L279.14182,26.1442271 L279.339187,26.5390704 L279.508358,26.93391 L279.663431,27.3428575 L279.790311,27.7659017 L279.903093,28.20305 L280.001777,28.6542987 L280.072268,29.119646 L280.114559,29.5849989 L280.142755,30.0644484 L280.156854,30.5580059 L280.156854,30.8118301 L280.128657,31.1361677 L280.10046,31.5169088 L280.044071,31.9399548 L280.015875,32.066866 L280.015875,32.1514759 Z" id="leaf"></path>
        </g>
    </g>
</svg>